<svg width="12" height="12" viewBox="0 0 12 12" fill="none" xmlns="http://www.w3.org/2000/svg">
<path d="M6 12C2.68235 12 0 9.31765 0 6C0 2.68235 2.68235 0 6 0C9.31765 0 12 2.68235 12 6C12 9.31765 9.31765 12 6 12ZM6 0.705882C3.07059 0.705882 0.705882 3.07059 0.705882 6C0.705882 8.92941 3.07059 11.2941 6 11.2941C8.92941 11.2941 11.2941 8.92941 11.2941 6C11.2941 3.07059 8.92941 0.705882 6 0.705882Z" fill="black"/>
<path d="M5.2952 8.61173L2.22461 5.54114L2.71873 5.04702L5.2952 7.62349L9.28343 3.63525L9.77755 4.12937L5.2952 8.61173Z" fill="black"/>
</svg>
